<?xml version="1.0" encoding="UTF-8" standalone="no"?>
<svg width="512" height="512" viewBox="0 0 512 512" version="1.1" xmlns="http://www.w3.org/2000/svg" role="img" aria-labelledby="title">
    <title id="title">VRCDH App Icon</title>
    <rect width="512" height="512" rx="112" fill="#f8f9ff"/>
    <svg x="60" y="119" width="392" height="274" viewBox="0 0 412 288">
<g>
  <title
     id="title1">VRCDH Logo Editable Explicit XY Coordinates</title>
  <defs
     id="defs1">
    <style
       id="style1">
            @import url('https://fonts.googleapis.com/css2?family=Noto+Sans+Mono:wght@700&amp;display=swap');

            .frame-fill {
                fill: #ffffff;
                stroke: none;
            }

            .frame-stroke {
                fill: none;
                stroke: #000000;
                stroke-width: 17;
                stroke-linejoin: round;
                stroke-linecap: round;
            }

            .logo-text {
                font-family: 'Noto Sans Mono', monospace;
                font-weight: 700;
                font-size: 154px;
            }

            .logo-black {
                fill: #000000;
            }

            .logo-blue {
                fill: #6cb6ff;
            }
        </style>
  </defs>
  <path
     class="frame-fill"
     d="M 38.5 8.5 H 373.5 A 30 30 0 0 1 403.5 38.5 V 177.5 A 30 30 0 0 1 373.5 207.5 H 359.5 V 279.5 L 277.5 207.5 H 38.5 A 30 30 0 0 1 8.5 177.5 V 38.5 A 30 30 0 0 1 38.5 8.5 Z"
     id="path1" />
  <path
     class="frame-stroke"
     d="M 38.5 8.5 H 373.5 A 30 30 0 0 1 403.5 38.5 V 177.5 A 30 30 0 0 1 373.5 207.5 H 359.5 V 279.5 L 277.5 207.5 H 38.5 A 30 30 0 0 1 8.5 177.5 V 38.5 A 30 30 0 0 1 38.5 8.5 Z"
     id="path2" />
  <g
     id="logo-text"
     class="logo-text"
     style="font-weight:700;font-size:154px;font-family:'Noto Sans Mono', monospace"
     transform="matrix(0.82,0,0,1,206,108)"
     aria-label="VRCDH">
    <path
       d="m -182.57899,56.751999 -32.186,-109.956 h 22.484 l 16.786,65.296 q 0.77,2.464 1.694,7.084 1.078,4.62 2.002,9.394 0.924,4.774 1.386,8.162 h 1.386 q 0.462,-3.388 1.232,-8.008 0.924,-4.774 1.848,-9.24 0.924,-4.62 1.54,-7.392 l 16.17,-65.296 h 22.792 l -32.186,109.956 z"
       id="path6" />
    <path
       d="m -117.585,56.751999 v -109.956 h 29.414001 q 13.09,0 21.868,4.004 8.932,3.85 13.552,11.242 4.62,7.392 4.62,17.864 0,7.392 -2.31,13.2439999 -2.31,5.852 -6.468,10.164 -4.158,4.158 -9.856,6.9300001 l 26.95,46.508 h -23.716 l -22.946,-41.426 h -8.778 v 41.426 z m 28.952001,-60.3680001 q 5.852,0 9.856,-1.694 4.004,-1.848 6.006,-5.3899999 2.156,-3.542 2.156,-8.932 0,-8.162 -4.774,-11.396 -4.62,-3.234 -13.706,-3.234 h -6.16 v 30.6459999 z"
       id="path7" />
    <path
       style="fill:#6cb6ff"
       d="m 10.548999,58.291999 q -15.8620001,0 -26.18,-6.622 -10.164,-6.776 -15.246,-18.942 -4.928,-12.32 -4.928,-28.6440001 0,-13.706 3.388,-24.4859999 3.388,-10.934 9.856,-18.634 6.622,-7.7 16.3239999,-11.704 9.856,-4.004 22.4840001,-4.004 8.008,0 14.014,1.694 6.16,1.54 12.474,4.62 l -7.392,18.326 q -5.698,-2.926 -10.626,-4.004 -4.774,-1.078 -9.24,-1.078 -8.0080001,0 -13.5520001,2.772 -5.544,2.618 -8.932,7.7 -3.2339999,5.082 -4.7739999,12.166 -1.386,7.0839999 -1.386,15.7079999 0,12.0120001 2.772,20.0200001 2.9259999,7.854 8.9319999,11.704 6.006,3.85 15.7080001,3.85 5.39,0 10.934,-1.386 5.698,-1.386 13.244,-4.774 v 20.02 q -6.622,2.926 -13.86,4.312 -7.084,1.386 -14.014,1.386 z"
       id="path8" />
    <path
       style="fill:#6cb6ff"
       d="m 49.825,56.751999 v -109.956 h 34.034 q 14.322,0 24.794,6.16 10.472,6.006 16.17,18.018 5.852,12.012 5.852,29.8759999 0,18.0180001 -6.006,30.4920001 -5.852,12.474 -16.786,18.942 -10.78,6.468 -25.718,6.468 z m 31.108,-18.942 q 14.014,0 20.482,-9.086 6.622,-9.086 6.622,-27.7200001 0,-12.3199999 -2.926,-20.0199999 -2.772,-7.854 -8.316,-11.55 -5.544,-3.696 -14.014,-3.696 H 71.847 v 72.072 z"
       id="path9" />
    <path
       style="fill:#6cb6ff"
       d="m 136.225,56.751999 v -109.956 h 22.33 v 42.966 h 33.88 v -42.966 h 22.33 v 109.956 h -22.33 V 9.0119989 h -33.88 V 56.751999 Z"
       id="path10" />
  </g>
</g>
    </svg>
</svg>
