<?xml version="1.0" encoding="UTF-8" standalone="no"?>
<svg width="512" height="512" viewBox="0 0 512 512" version="1.1" xmlns="http://www.w3.org/2000/svg" role="img"
     aria-labelledby="title">
    <title id="title">VRCAL Maskable App Icon</title>
    <rect width="512" height="512" rx="0" fill="#f8f9ff"/>
    <svg x="76" y="146" width="360" height="220" viewBox="0 0 471 288">
        <g>
            <title>VRCAL Logo Tight (White Fill)</title>
            <style>
                .noto {
                font-family: "Noto Sans", "Noto Sans SC", "Noto Sans CJK SC", sans-serif;
                text-rendering: geometricPrecision;
                }
                /* 气泡框的描边样式 */
                .frame-stroke {
                fill: none;
                stroke: #000000;
                stroke-width: 17;
                stroke-linejoin: round;
                stroke-linecap: round;
                }
                /* 气泡框内部的白色填充样式 */
                .frame-fill {
                fill: #FFFFFF; /* 填充白色 */
                stroke: none; /* 无描边 */
                }
            </style>

            <g transform="translate(-168.5, -348.5)">

                <path
                        class="frame-fill"
                        d="M 207 357 H 602 A 30 30 0 0 1 632 387 V 526 A 30 30 0 0 1 602 556 H 588 V 628 L 506 556 H 207 A 30 30 0 0 1 177 526 V 387 A 30 30 0 0 1 207 357 Z"/>

                <path
                        class="frame-stroke"
                        d="M 207 357 H 602 A 30 30 0 0 1 632 387 V 526 A 30 30 0 0 1 602 556 H 588 V 628 L 506 556 H 207 A 30 30 0 0 1 177 526 V 387 A 30 30 0 0 1 207 357 Z"/>

                <g class="noto" transform="translate(35, 0) scale(0.82, 1)" style="font-weight:700;">
                    <path
                            d="m 312.1,406.086 -37.422,109.956 h -25.41 L 212,406.086 h 23.562 l 20.636,65.45 q 0.616,1.694 1.694,6.314 1.232,4.466 2.464,9.548 1.232,4.928 1.694,8.316 0.462,-3.388 1.54,-8.316 1.232,-5.082 2.464,-9.548 1.232,-4.62 1.694,-6.314 l 20.79,-65.45 z m 43.89195,0 q 22.484,0 33.11,8.162 10.78,8.162 10.78,24.794 0,7.546 -2.926,13.244 -2.772,5.544 -7.546,9.548 -4.62,3.85 -10.01,6.314 l 32.34,47.894 h -25.872 l -26.18,-42.196 h -12.474 v 42.196 h -23.254 V 406.086 Z m -1.694,19.096 h -7.084 v 29.722 h 7.546 q 11.55,0 16.478,-3.85 5.082,-3.85 5.082,-11.396 0,-7.854 -5.39,-11.088 -5.236,-3.388 -16.632,-3.388 z"/>
                    <path
                            style="fill:#6cb6ff"
                            d="m 470.26193,423.95 q -13.398,0 -20.482,10.01 -7.084,10.01 -7.084,27.412 0,17.556 6.468,27.258 6.622,9.548 21.098,9.548 6.776,0 13.398,-1.54 6.776,-1.54 14.63,-4.312 v 19.558 q -7.238,2.926 -14.322,4.312 -7.084,1.386 -15.862,1.386 -16.94,0 -28.028,-6.93 -10.934,-7.084 -16.17,-19.712 -5.236,-12.782 -5.236,-29.722 0,-16.632 6.006,-29.414 6.006,-12.782 17.402,-20.02 11.55,-7.238 28.182,-7.238 8.162,0 16.324,2.156 8.316,2.002 15.862,5.544 l -7.546,18.942 q -6.16,-2.926 -12.474,-5.082 -6.16,-2.156 -12.166,-2.156 z m 116.73387,92.092 -8.008,-26.18 h -40.04 l -8.008,26.18 h -25.102 l 38.808,-110.418 h 28.49 l 38.962,110.418 z m -21.56,-71.302 q -0.77,-2.618 -2.002,-6.622 -1.232,-4.004 -2.464,-8.162 -1.232,-4.158 -2.002,-7.238 -0.77,3.08 -2.156,7.7 -1.232,4.466 -2.464,8.624 -1.078,4.004 -1.694,5.698 l -7.854,25.564 h 28.644 z m 58.52207,71.302 V 406.086 h 23.254 v 90.706 h 44.66 v 19.25 z"/>
                </g>
            </g>
        </g>
    </svg>
</svg>
